<?xml version="1.0" encoding="utf-8"?>
<!-- Generator: Adobe Illustrator 27.5.0, SVG Export Plug-In . SVG Version: 6.00 Build 0)  -->
<svg version="1.1" xmlns="http://www.w3.org/2000/svg" xmlns:xlink="http://www.w3.org/1999/xlink" x="0px" y="0px"
	 viewBox="0 0 4975 4975" style="enable-background:new 0 0 4975 4975;" xml:space="preserve">
<g id="Layer_1">
	<radialGradient id="SVGID_1_" cx="2487.5" cy="2487.5" r="3776.8708" gradientUnits="userSpaceOnUse">
		<stop  offset="0" style="stop-color:#FFFFFF"/>
		<stop  offset="0.5657" style="stop-color:#FFFFFF"/>
		<stop  offset="0.6349" style="stop-color:#FAFAFA"/>
		<stop  offset="0.7142" style="stop-color:#ECEDED"/>
		<stop  offset="0.7984" style="stop-color:#D5D6D7"/>
		<stop  offset="0.8862" style="stop-color:#B5B6B8"/>
		<stop  offset="0.9759" style="stop-color:#8C8E91"/>
		<stop  offset="1" style="stop-color:#808285"/>
	</radialGradient>
	<rect style="fill:url(#SVGID_1_);" width="4975" height="4975"/>
</g>
<g id="Isolation_Mode">
	<g>
		
			<radialGradient id="SVGID_00000008151007615605663650000009067853708668928927_" cx="2508.2742" cy="51397.8516" r="1725.9551" gradientTransform="matrix(1 0 0 0.1803 0 -5684.2993)" gradientUnits="userSpaceOnUse">
			<stop  offset="0" style="stop-color:#939598"/>
			<stop  offset="0.0462" style="stop-color:#9D9FA2"/>
			<stop  offset="0.2109" style="stop-color:#BEC0C2"/>
			<stop  offset="0.3722" style="stop-color:#D9DADC"/>
			<stop  offset="0.5272" style="stop-color:#ECEDEE"/>
			<stop  offset="0.6729" style="stop-color:#F8F9F9"/>
			<stop  offset="0.8" style="stop-color:#FFFFFF"/>
		</radialGradient>
		<path style="fill:url(#SVGID_00000008151007615605663650000009067853708668928927_);" d="M4357.031,3582.73
			c0,204.393-827.717,370.079-1848.756,370.079c-1021.041,0-1848.758-165.687-1848.758-370.079
			c0-204.388,827.718-370.073,1848.758-370.073C3529.314,3212.657,4357.031,3378.343,4357.031,3582.73z"/>
		<g>
			<path d="M2649.82,1891.084c-11.973,17.328-24.504,34.097-37.221,50.694c-12.682,16.625-25.674,32.946-38.75,49.186
				c-18.678,23.048-37.652,45.808-56.932,68.271c-5.949,6.934-11.924,13.84-17.941,20.719c-1.861,2.143-3.736,4.287-5.609,6.423
				c-3.861,4.405-7.728,8.795-11.608,13.179c-51.171,57.856-104.043,114.037-158.17,168.978
				c-40.783,41.349-82.297,81.96-124.721,121.688h-0.007c-15.136,14.185-30.396,28.245-45.773,42.189
				c-0.317,0.289-0.634,0.578-0.958,0.867c-2.771,2.517-5.548,5.025-8.326,7.527c-30.851,27.84-62.301,55.092-94.331,81.76
				c-16.073,13.281-32.223,26.488-48.682,39.383c-16.425,12.931-33.043,25.676-50.227,37.861
				c11.952-17.349,24.476-34.125,37.179-50.729c12.675-16.638,25.661-32.96,38.729-49.212
				c19.816-24.455,39.957-48.586,60.441-72.379c6.645-7.713,13.323-15.398,20.037-23.042c1.785-2.04,3.577-4.08,5.383-6.113
				c53.114-60.338,108.082-118.849,164.456-175.98c55.147-55.802,111.59-110.329,169.805-163.119
				c3.343-3.033,6.692-6.065,10.049-9.084c8.326-7.513,16.701-14.984,25.117-22.408c22.758-20.099,45.829-39.88,69.208-59.358
				c16.061-13.289,32.209-26.502,48.662-39.404C2616.047,1916.042,2632.65,1903.284,2649.82,1891.084z"/>
			<path d="M2313.696,1891.082c17.168,12.2,33.768,24.96,50.191,37.894c16.453,12.907,32.596,26.117,48.659,39.407
				c32.023,26.682,63.468,53.932,94.321,81.767c61.773,55.608,121.537,113.194,179.855,172.208
				c58.279,59.054,115.055,119.591,169.84,182.09c27.418,31.226,54.242,63.034,80.482,95.423
				c13.063,16.251,26.049,32.574,38.723,49.209c12.707,16.603,25.23,33.386,37.18,50.731
				c-17.184-12.185-33.795-24.932-50.225-37.859c-16.463-12.896-32.611-26.103-48.684-39.383
				c-32.031-26.674-63.479-53.923-94.332-81.761c-61.756-55.621-121.521-113.205-179.785-172.273
				c-58.227-59.106-115.002-119.642-169.773-182.156c-27.417-31.225-54.242-63.036-80.49-95.415
				c-13.073-16.24-26.063-32.56-38.748-49.184C2338.199,1925.183,2325.665,1908.413,2313.696,1891.082z"/>
			<path d="M2540.506,2277.372c0.002,35.369-28.658,64.046-64.048,64.045c-35.348,0.001-64.005-28.676-64.005-64.046
				c0-35.348,28.657-64.026,64.004-64.026C2511.848,2213.345,2540.508,2242.022,2540.506,2277.372z"/>
			<polygon points="2810.707,2396.038 2691.979,2293.542 2691.979,2098.483 2810.531,2098.483 			"/>
			<path style="fill:#F7941D;" d="M1542.375,3067.651c3.632-10.856,7.966-21.483,12.496-32.025
				c4.53-10.549,9.413-20.951,14.505-31.266c10.212-20.615,21.406-40.793,33.402-60.545c24.046-39.469,51.366-77.206,81.722-112.692
				c30.357-35.48,63.781-68.701,100.063-98.961c18.125-15.148,37.009-29.486,56.51-43.055
				c19.553-13.483,39.701-26.246,60.518-37.945c41.558-23.537,85.588-43.16,131.169-58.546c22.809-7.623,45.971-14.319,69.437-19.76
				c11.726-2.747,23.517-5.226,35.355-7.454c11.846-2.186,23.741-4.094,35.667-5.759c47.714-6.672,95.965-8.88,143.895-7.264
				c23.971,0.798,47.858,2.673,71.611,5.296c23.746,2.693,47.337,6.311,70.742,10.636c23.392,4.404,46.578,9.612,69.546,15.465
				c10.321,2.671,21.111,5.283,31.786,7.785c10.693,2.504,21.413,4.864,32.139,7.165c21.442,4.66,42.979,8.743,64.55,12.491
				c21.569,3.774,43.217,6.929,64.886,9.763c86.688,11.106,174.192,14.23,261.069,6.887c21.706-1.89,43.386-4.317,64.959-7.573
				c21.594-3.151,43.08-7.113,64.467-11.702c42.754-9.247,85.018-21.422,126.42-36.668c41.399-15.243,81.945-33.544,121.195-54.989
				c39.284-21.413,77.193-45.987,113.689-73.518c-28.443,35.838-61.578,68.286-97.563,97.503
				c-36.038,29.184-75.102,55.038-116.31,77.293c-82.453,44.551-173.321,74.521-266.38,90.376
				c-23.268,4.04-46.693,7.104-70.182,9.485c-11.745,1.187-23.512,2.096-35.286,2.881c-11.774,0.765-23.559,1.383-35.348,1.733
				c-23.575,0.728-47.163,0.806-70.708,0.055c-11.772-0.364-23.539-0.848-35.286-1.555c-11.747-0.716-23.479-1.594-35.193-2.616
				c-23.435-1.997-46.768-4.823-70.011-8.083c-23.242-3.289-46.354-7.279-69.359-11.687c-11.499-2.223-22.953-4.639-34.383-7.133
				c-11.443-2.521-22.738-5.08-34.413-7.941c-21.01-5.266-42.136-9.862-63.33-13.814c-21.179-4.036-42.45-7.318-63.753-9.936
				c-21.297-2.686-42.65-4.523-63.999-5.701c-42.7-2.341-85.424-1.528-127.796,2.607c-10.593,1.038-21.16,2.309-31.696,3.795
				c-10.542,1.447-21.055,3.118-31.526,5.029c-20.932,3.861-41.756,8.438-62.338,14.041c-41.211,11.046-81.56,25.722-120.726,43.585
				c-39.15,17.904-77.058,39.106-113.478,63.12c-36.412,24.031-71.301,50.91-104.538,80.126
				c-33.236,29.223-64.842,60.765-94.658,94.298c-14.925,16.756-29.386,34.024-43.367,51.783
				C1568.589,3030.441,1555.014,3048.621,1542.375,3067.651z"/>
			<path style="fill:#ED1C24;" d="M1557.149,3110.313c4.626-10.472,9.93-20.649,15.42-30.724
				c5.492-10.082,11.321-19.985,17.35-29.781c12.085-19.576,25.107-38.625,38.89-57.176c27.613-37.062,58.324-72.094,91.849-104.603
				c33.526-32.503,69.896-62.471,108.834-89.225c19.456-13.397,39.591-25.916,60.27-37.61c20.722-11.607,41.97-22.44,63.785-32.152
				c43.567-19.57,89.232-35.012,136.046-46.091c23.42-5.469,47.104-9.981,70.974-13.216c11.931-1.645,23.901-3.016,35.896-4.133
				c11.998-1.075,24.019-1.868,36.049-2.416c48.127-2.205,96.375,0.084,143.947,6.152c23.792,3.024,47.402,7.113,70.808,11.934
				c23.393,4.891,46.544,10.688,69.446,17.17c22.881,6.562,45.482,13.904,67.806,21.867c10.028,3.619,20.528,7.225,30.924,10.708
				c10.414,3.487,20.868,6.835,31.333,10.124c20.916,6.634,41.979,12.703,63.109,18.441c21.124,5.764,42.384,10.917,63.695,15.756
				c85.279,19.12,172.113,30.37,259.297,31.139c21.788,0.139,43.6-0.263,65.382-1.498c21.794-1.129,43.555-3.074,65.275-5.654
				c43.429-5.23,86.642-13.421,129.282-24.75c42.639-11.326,84.711-25.777,125.786-43.479
				c41.104-17.666,81.136-38.607,120.034-62.624c-31.653,33.038-67.662,62.263-106.208,88.007
				c-38.597,25.704-79.896,47.813-122.995,66.139c-86.24,36.688-179.502,58.076-273.632,65.206
				c-23.542,1.858-47.151,2.731-70.759,2.917c-11.805,0.088-23.605-0.101-35.402-0.414c-11.794-0.334-23.585-0.814-35.355-1.563
				c-23.54-1.469-47.034-3.584-70.406-6.521c-11.688-1.458-23.358-3.033-34.989-4.831c-11.63-1.806-23.229-3.771-34.797-5.878
				c-23.147-4.168-46.116-9.152-68.956-14.56c-22.834-5.437-45.476-11.56-67.971-18.087c-11.242-3.284-22.422-6.754-33.57-10.301
				c-11.159-3.575-22.167-7.174-33.525-11.108c-20.43-7.197-41.036-13.739-61.771-19.645c-20.711-5.989-41.584-11.235-62.552-15.823
				c-20.956-4.654-42.045-8.471-63.191-11.629c-42.297-6.304-84.911-9.468-127.484-9.292c-10.643,0.048-21.282,0.33-31.911,0.83
				c-10.632,0.461-21.254,1.146-31.858,2.075c-21.201,1.897-42.36,4.518-63.374,8.183c-42.06,7.163-83.598,18.022-124.256,32.165
				c-40.646,14.186-80.362,31.77-118.857,52.291c-38.489,20.541-75.728,44.058-111.538,70.056
				c-35.81,26.004-70.212,54.47-103.019,85.084c-16.419,15.295-32.424,31.144-47.996,47.524
				C1586.71,3075.703,1571.503,3092.541,1557.149,3110.313z"/>
			<path style="fill:#603913;" d="M1571.956,3144.863c5.741-9.904,12.124-19.442,18.682-28.857
				c6.559-9.423,13.434-18.63,20.497-27.709c14.149-18.141,29.173-35.654,44.897-52.591c31.493-33.825,65.844-65.297,102.717-93.953
				c36.873-28.649,76.296-54.469,117.922-76.813c20.802-11.193,42.183-21.44,64.015-30.809
				c21.865-9.275,44.168-17.726,66.913-24.998c45.443-14.698,92.52-25.063,140.264-30.968c23.876-2.879,47.911-4.78,71.991-5.39
				c12.039-0.332,24.088-0.389,36.133-0.19c12.043,0.241,24.079,0.765,36.097,1.532c48.081,3.062,95.79,10.603,142.416,21.827
				c23.321,5.604,46.343,12.244,69.083,19.59c22.72,7.415,45.101,15.703,67.157,24.647c22.028,9.019,43.693,18.784,65.015,29.137
				c9.573,4.691,19.617,9.421,29.57,14.019c9.971,4.604,19.997,9.072,30.041,13.483c20.066,8.877,40.342,17.208,60.719,25.219
				c20.369,8.035,40.939,15.478,61.596,22.613c82.684,28.313,167.771,48.974,254.351,59.253c21.642,2.516,43.366,4.496,65.153,5.646
				c21.787,1.256,43.631,1.697,65.503,1.503c43.741-0.459,87.589-3.885,131.212-10.492c43.619-6.605,87.018-16.378,129.779-29.49
				c42.787-13.075,84.865-29.521,126.152-49.149c-35.07,29.385-74.054,54.506-115.179,75.889
				c-41.171,21.338-84.638,38.809-129.479,52.32c-89.729,27.058-184.767,38.139-279.113,34.953
				c-23.604-0.723-47.168-2.432-70.654-4.824c-11.744-1.199-23.454-2.676-35.146-4.273c-11.688-1.619-23.355-3.385-34.974-5.412
				c-23.239-4.029-46.362-8.697-69.274-14.168c-11.458-2.725-22.888-5.564-34.253-8.62c-11.363-3.063-22.679-6.282-33.947-9.641
				c-22.555-6.67-44.842-14.131-66.955-21.999c-22.105-7.896-43.943-16.453-65.591-25.396c-10.817-4.491-21.551-9.161-32.246-13.903
				c-10.702-4.771-21.251-9.55-32.112-14.7c-19.521-9.385-39.291-18.137-59.258-26.27c-19.934-8.214-40.109-15.707-60.451-22.556
				c-20.322-6.914-40.869-13.009-61.544-18.457c-41.357-10.882-83.371-18.678-125.708-23.149
				c-10.585-1.113-21.192-1.995-31.812-2.658c-10.618-0.701-21.252-1.18-31.894-1.414c-21.281-0.428-42.6-0.133-63.888,1.217
				c-42.591,2.531-85.066,8.791-127.025,18.412c-41.951,9.664-83.349,22.809-123.854,39.006
				c-40.501,16.218-80.084,35.529-118.518,57.463c-38.434,21.941-75.738,46.482-111.689,73.333
				c-17.99,13.411-35.629,27.419-52.896,42.002C1605.118,3113.687,1588.164,3128.764,1571.956,3144.863z"/>
		</g>
	</g>
</g>
<g id="Layer_5">
</g>
</svg>
